<svg width="1920" height="1315" viewBox="0 0 1920 1315" fill="none" xmlns="http://www.w3.org/2000/svg">
<path fill-rule="evenodd" clip-rule="evenodd" d="M977.492 106.817C1078.02 88.8903 1172.35 0.579116 1268.31 30.2656C1364.47 60.016 1361.22 173.767 1416.47 242.626C1459.5 296.257 1502.31 349.433 1559.93 393.732C1642.38 457.126 1767.28 483.878 1829.59 560.262C1894.75 640.155 1926.22 739.082 1918.98 833.92C1911.54 931.429 1877.29 1037.82 1787.97 1105.47C1696.76 1174.56 1550.01 1165.54 1432.51 1202.39C1331.91 1233.94 1247.15 1296.25 1140.05 1308.7C1033.65 1321.06 914.556 1318.16 823.342 1273.21C729.222 1226.82 734.044 1098.35 634.547 1059.58C520.505 1015.14 365.671 1103.53 256.333 1052.25C160.721 1007.42 156.768 897.555 115.362 816.104C70.9986 728.835 -12.6844 644.559 1.62523 551.212C15.9942 457.479 148.483 401.934 192.32 314.08C240.588 217.348 150.556 53.1449 271.097 11.1699C420.154 -40.7354 572.919 103.886 733.501 125.629C814.733 136.628 897.1 121.152 977.492 106.817Z" fill="#28DB9B"/>
</svg>
