<svg width="324" height="190" viewBox="0 0 324 190" fill="none" xmlns="http://www.w3.org/2000/svg">
<path d="M321.5 1C171 1 171 189.5 1 189.5" stroke="white" stroke-linecap="round"/>
<path d="M76.9091 60.1818V130H61.0909L35.8636 93.3182H35.4545V130H16.5V60.1818H32.5909L57.4091 96.7273H57.9545V60.1818H76.9091ZM153.511 95.0909C153.511 102.864 152 109.42 148.977 114.761C145.955 120.08 141.875 124.114 136.739 126.864C131.602 129.591 125.875 130.955 119.557 130.955C113.193 130.955 107.443 129.58 102.307 126.83C97.1932 124.057 93.125 120.011 90.1023 114.693C87.1023 109.352 85.6023 102.818 85.6023 95.0909C85.6023 87.3182 87.1023 80.7727 90.1023 75.4545C93.125 70.1136 97.1932 66.0795 102.307 63.3523C107.443 60.6023 113.193 59.2273 119.557 59.2273C125.875 59.2273 131.602 60.6023 136.739 63.3523C141.875 66.0795 145.955 70.1136 148.977 75.4545C152 80.7727 153.511 87.3182 153.511 95.0909ZM134.011 95.0909C134.011 88.8182 132.773 84.0227 130.295 80.7045C127.841 77.3864 124.261 75.7273 119.557 75.7273C114.852 75.7273 111.261 77.3864 108.784 80.7045C106.33 84.0227 105.102 88.8182 105.102 95.0909C105.102 101.364 106.33 106.159 108.784 109.477C111.261 112.795 114.852 114.455 119.557 114.455C124.261 114.455 127.841 112.795 130.295 109.477C132.773 106.159 134.011 101.364 134.011 95.0909Z" fill="white"/>
<mask id="mask0" mask-type="alpha" maskUnits="userSpaceOnUse" x="158" y="29" width="166" height="114">
<path d="M158.5 140.5L311.5 142.5L324 39C301.5 36.8333 242.6 24.9 229 32.5C215.4 40.1 176 86.6667 161 104.5L158.5 140.5Z" fill="#C4C4C4"/>
</mask>
<g mask="url(#mask0)">
<path d="M180.636 130V130.5H181.008L181.115 130.144L180.636 130ZM160.182 130L159.707 129.843L159.49 130.5H160.182V130ZM183.227 60.1818V59.6818H182.866L182.752 60.0251L183.227 60.1818ZM209.136 60.1818L209.611 60.0251L209.498 59.6818H209.136V60.1818ZM232.182 130V130.5H232.873L232.657 129.843L232.182 130ZM211.727 130L211.248 130.144L211.356 130.5H211.727V130ZM207.705 116.636L208.183 116.492L208.076 116.136H207.705V116.636ZM184.659 116.636V116.136H184.287L184.18 116.492L184.659 116.636ZM188.955 102.455L188.476 102.31L188.281 102.955H188.955V102.455ZM203.409 102.455V102.955H204.082L203.888 102.31L203.409 102.455ZM196.455 79.4091L196.933 79.2646L196.826 78.9091H196.455V79.4091ZM195.909 79.4091V78.9091H195.538L195.43 79.2646L195.909 79.4091ZM180.636 129.5H160.182V130.5H180.636V129.5ZM160.657 130.157L183.702 60.3385L182.752 60.0251L159.707 129.843L160.657 130.157ZM183.227 60.6818H209.136V59.6818H183.227V60.6818ZM208.662 60.3385L231.707 130.157L232.657 129.843L209.611 60.0251L208.662 60.3385ZM232.182 129.5H211.727V130.5H232.182V129.5ZM212.206 129.856L208.183 116.492L207.226 116.78L211.248 130.144L212.206 129.856ZM207.705 116.136H184.659V117.136H207.705V116.136ZM184.18 116.492L180.158 129.856L181.115 130.144L185.138 116.78L184.18 116.492ZM188.955 102.955H203.409V101.955H188.955V102.955ZM203.888 102.31L196.933 79.2646L195.976 79.5535L202.93 102.599L203.888 102.31ZM196.455 78.9091H195.909V79.9091H196.455V78.9091ZM195.43 79.2646L188.476 102.31L189.433 102.599L196.388 79.5535L195.43 79.2646ZM299.315 60.1818H299.815V59.6818H299.315V60.1818ZM299.315 130V130.5H299.815V130H299.315ZM283.497 130L283.085 130.283L283.234 130.5H283.497V130ZM258.27 93.3182L258.682 93.0349L258.533 92.8182H258.27V93.3182ZM257.861 93.3182V92.8182H257.361V93.3182H257.861ZM257.861 130V130.5H258.361V130H257.861ZM238.906 130H238.406V130.5H238.906V130ZM238.906 60.1818V59.6818H238.406V60.1818H238.906ZM254.997 60.1818L255.411 59.9009L255.262 59.6818H254.997V60.1818ZM279.815 96.7273L279.402 97.0082L279.55 97.2273H279.815V96.7273ZM280.361 96.7273V97.2273H280.861V96.7273H280.361ZM280.361 60.1818V59.6818H279.861V60.1818H280.361ZM298.815 60.1818V130H299.815V60.1818H298.815ZM299.315 129.5H283.497V130.5H299.315V129.5ZM283.909 129.717L258.682 93.0349L257.858 93.6015L283.085 130.283L283.909 129.717ZM258.27 92.8182H257.861V93.8182H258.27V92.8182ZM257.361 93.3182V130H258.361V93.3182H257.361ZM257.861 129.5H238.906V130.5H257.861V129.5ZM239.406 130V60.1818H238.406V130H239.406ZM238.906 60.6818H254.997V59.6818H238.906V60.6818ZM254.584 60.4627L279.402 97.0082L280.229 96.4464L255.411 59.9009L254.584 60.4627ZM279.815 97.2273H280.361V96.2273H279.815V97.2273ZM280.861 96.7273V60.1818H279.861V96.7273H280.861ZM280.361 60.6818H299.315V59.6818H280.361V60.6818Z" fill="white"/>
</g>
</svg>
