<svg width="955" height="569" viewBox="0 0 955 569" fill="none" xmlns="http://www.w3.org/2000/svg">
<g id="Logo 1">
<g id="an">
<g id="Group">
<path id="Vector" d="M500.537 374.592V373.21L501.861 373.608M500.537 374.592H501.565L501.861 373.608M500.537 374.592H443.972M500.537 374.592V371.829H443.972V374.592M501.861 373.608L499.215 372.813L510.337 335.886M501.861 373.608L512.987 336.682L510.337 335.886M442.659 372.777L443.972 373.21V374.592M442.659 372.777L442.059 374.592H443.972M442.659 372.777L506.388 179.859M442.659 372.777L445.286 373.644L509.015 180.725L506.388 179.859M507.702 178.91V180.292L506.388 179.859M507.702 178.91H506.703L506.388 179.859M507.702 178.91H579.351M507.702 178.91V181.673H579.351V178.91M580.665 179.859L579.351 180.292V178.91M580.665 179.859L580.352 178.91H579.351M580.665 179.859L644.397 372.777M580.665 179.859L578.041 180.725L641.77 373.644L644.397 372.777M643.084 374.592V373.21L644.397 372.777M643.084 374.592H644.994L644.397 372.777M643.084 374.592H586.517M643.084 374.592V371.829H586.517V374.592M585.192 373.608L586.517 373.21V374.592M585.192 373.608L585.491 374.592H586.517M585.192 373.608L574.069 336.682L576.716 335.886M585.192 373.608L587.841 372.813L576.716 335.886M576.716 335.886L575.394 336.284V334.902M576.716 335.886L576.42 334.902H575.394M575.394 334.902H511.662M575.394 334.902V337.665H511.662V334.902M511.662 334.902V336.284L510.337 335.886M511.662 334.902H510.633L510.337 335.886M522.218 296.699L523.542 297.099V298.481M522.218 296.699L521.678 298.481H523.542M522.218 296.699L541.448 233.021M522.218 296.699L524.864 297.497L544.098 233.819L541.448 233.021M523.542 298.481H563.514M523.542 298.481V295.718H563.514V298.481M563.514 298.481V297.099L564.838 296.699M563.514 298.481H565.375L564.838 296.699M564.838 296.699L545.605 233.021M564.838 296.699L562.189 297.497L542.958 233.819L545.605 233.021M545.605 233.021L544.283 233.42V232.038M545.605 233.021L545.309 232.038H544.283M544.283 232.038H542.773M544.283 232.038V234.801H542.773V232.038M542.773 232.038V233.42L541.448 233.021M542.773 232.038H541.747L541.448 233.021" stroke="white" stroke-width="3"/>
<path id="Vector_2" d="M830.118 180.292H828.735V178.91M830.118 180.292V178.91H828.735M830.118 180.292V373.21M830.118 180.292H827.353V373.21H830.118M828.735 178.91V181.673H776.319V178.91M828.735 178.91H776.319M828.735 374.592V373.21H830.118M828.735 374.592H830.118V373.21M828.735 374.592H784.992M828.735 374.592V371.829H784.992V374.592M783.852 373.992L784.992 373.21V374.592M783.852 373.992L784.264 374.592H784.992M783.852 373.992L714.089 272.636L716.368 271.07M783.852 373.992L786.131 372.429L716.368 271.07M716.368 271.07L715.228 271.853V270.471M716.368 271.07L715.955 270.471H715.228M715.228 270.471H714.097M715.228 270.471V273.234H714.097V270.471M714.097 270.471V271.853H712.714M714.097 270.471H712.714V271.853M712.714 271.853V373.21H715.48M712.714 271.853H715.48V373.21M714.097 374.592V373.21H715.48M714.097 374.592H715.48V373.21M714.097 374.592H661.678M714.097 374.592V371.829H661.678V374.592M660.296 373.21H661.678V374.592M660.296 373.21V374.592H661.678M660.296 373.21V180.292M660.296 373.21H663.061V180.292H660.296M661.678 178.91V180.292H660.296M661.678 178.91H660.296V180.292M661.678 178.91H706.177M661.678 178.91V181.673H706.177V178.91M707.322 179.516L706.177 180.292V178.91M707.322 179.516L706.91 178.91H706.177M707.322 179.516L775.954 280.497L773.667 282.049M707.322 179.516L705.035 181.068L773.667 282.049M773.667 282.049L774.809 281.273V282.654M773.667 282.049L774.077 282.654H774.809M774.809 282.654H776.319M774.809 282.654V279.891H776.319V282.654M776.319 282.654V281.273H777.702M776.319 282.654H777.702V281.273M777.702 281.273V180.292H774.937M777.702 281.273H774.937V180.292M776.319 178.91V180.292H774.937M776.319 178.91H774.937V180.292" stroke="white" stroke-width="3"/>
</g>
</g>
<g id="meteor">
<mask id="mask0" mask-type="alpha" maskUnits="userSpaceOnUse" x="-45" y="-283" width="1027" height="1065">
<path id="Rectangle 10" d="M931.999 -29.5L980.708 16.7238L260.135 504.305C260.135 504.305 113.281 635.145 29.2775 551.149C-54.7264 467.153 65.1568 365.781 65.1568 365.781L577.194 -3.21221L931.999 -29.5Z" fill="#C4C4C4"/>
</mask>
<g mask="url(#mask0)">
<g id="meteor_2" filter="url(#filter0_d)">
<path d="M939.086 3.76318C522.889 3.76318 -74.5002 394.124 52.7653 524.618C180.031 655.113 612.755 3.76318 939.086 3.76318Z" fill="url(#paint0_linear)"/>
</g>
</g>
</g>
<g id="no">
<path id="Vector_3" d="M212.687 373.211V180.292H160.269V281.273H158.761L90.1279 180.292H45.6296V373.211H98.047V271.853H99.1784L168.943 373.211H212.687Z" fill="white"/>
<path id="Vector_4" fill-rule="evenodd" clip-rule="evenodd" d="M424.524 276.751C424.524 298.229 420.346 316.345 411.986 331.103C403.629 345.8 392.346 356.947 378.142 364.545C363.936 372.08 348.099 375.849 330.627 375.849C313.028 375.849 297.126 372.05 282.923 364.451C268.781 356.789 257.531 345.609 249.172 330.915C249.172 330.915 237.514 316.503 237.5 276.751C237.486 236.999 249.172 222.493 249.172 222.493C257.531 207.735 268.781 196.588 282.923 189.052C297.126 181.454 313.028 177.654 330.627 177.654C348.099 177.654 363.936 181.454 378.142 189.052C392.346 196.588 403.629 207.735 411.986 222.493C420.346 237.188 424.524 255.274 424.524 276.751ZM360.322 236.999C367.175 246.168 370.598 259.419 370.598 276.751C370.598 294.085 367.175 307.334 360.322 316.502C353.536 325.67 343.635 330.257 330.627 330.257C317.615 330.257 307.685 325.67 300.835 316.502C294.048 307.334 290.652 294.085 290.652 276.751C290.652 259.419 294.048 246.168 300.835 236.999C307.685 227.831 317.615 223.246 330.627 223.246C343.635 223.246 353.536 227.831 360.322 236.999Z" fill="white"/>
</g>
</g>
<defs>
<filter id="filter0_d" x="20.3321" y="0.763184" width="933.754" height="568.137" filterUnits="userSpaceOnUse" color-interpolation-filters="sRGB">
<feFlood flood-opacity="0" result="BackgroundImageFix"/>
<feColorMatrix in="SourceAlpha" type="matrix" values="0 0 0 0 0 0 0 0 0 0 0 0 0 0 0 0 0 0 127 0"/>
<feOffset dy="12"/>
<feGaussianBlur stdDeviation="7.5"/>
<feColorMatrix type="matrix" values="0 0 0 0 0 0 0 0 0 0 0 0 0 0 0 0 0 0 0.25 0"/>
<feBlend mode="normal" in2="BackgroundImageFix" result="effect1_dropShadow"/>
<feBlend mode="normal" in="SourceGraphic" in2="effect1_dropShadow" result="shape"/>
</filter>
<linearGradient id="paint0_linear" x1="939" y1="3.99995" x2="46.4998" y2="524.5" gradientUnits="userSpaceOnUse">
<stop/>
<stop offset="1" stop-color="#10F1FF"/>
</linearGradient>
</defs>
</svg>
